<svg width="1853" height="780" viewBox="0 0 1853 780" fill="none" xmlns="http://www.w3.org/2000/svg">
<rect width="1853" height="780" fill="white"/>
<rect x="45.5" y="44.5" width="623" height="241" stroke="black" stroke-width="5"/>
<rect x="45.5" y="326.5" width="623" height="405" stroke="black" stroke-width="5"/>
<rect x="1077.5" y="121.5" width="193" height="405" stroke="black" stroke-width="5"/>
<rect x="1303.5" y="121.5" width="507" height="405" stroke="black" stroke-width="5"/>
<path d="M1042.54 311.536C1044.49 309.583 1044.49 306.417 1042.54 304.464L1010.72 272.645C1008.76 270.692 1005.6 270.692 1003.64 272.645C1001.69 274.597 1001.69 277.763 1003.64 279.716L1031.93 308L1003.64 336.284C1001.69 338.237 1001.69 341.403 1003.64 343.355C1005.6 345.308 1008.76 345.308 1010.72 343.355L1042.54 311.536ZM725 313H1039V303H725V313Z" fill="black"/>
<path d="M1604.98 411H1511.82V398.012L1561.04 343.324C1568.33 335.056 1573.34 328.35 1576.07 323.207C1578.87 317.999 1580.27 312.628 1580.27 307.094C1580.27 299.672 1578.03 293.585 1573.54 288.832C1569.04 284.079 1563.05 281.703 1555.57 281.703C1546.58 281.703 1539.58 284.275 1534.57 289.418C1529.62 294.496 1527.15 301.592 1527.15 310.707H1509.08C1509.08 297.621 1513.28 287.042 1521.68 278.969C1530.14 270.896 1541.44 266.859 1555.57 266.859C1568.78 266.859 1579.23 270.342 1586.91 277.309C1594.6 284.21 1598.44 293.422 1598.44 304.945C1598.44 318.943 1589.52 335.609 1571.68 354.945L1533.59 396.254H1604.98V411Z" fill="black"/>
<path d="M371.191 238H353.027V117.59L316.602 130.969V114.562L368.359 95.1289H371.191V238Z" fill="black"/>
<path d="M1188.19 411H1170.03V290.59L1133.6 303.969V287.562L1185.36 268.129H1188.19V411Z" fill="black"/>
<path d="M404.98 596H311.816V583.012L361.035 528.324C368.327 520.056 373.34 513.35 376.074 508.207C378.874 502.999 380.273 497.628 380.273 492.094C380.273 484.672 378.027 478.585 373.535 473.832C369.043 469.079 363.053 466.703 355.566 466.703C346.582 466.703 339.583 469.275 334.57 474.418C329.622 479.496 327.148 486.592 327.148 495.707H309.082C309.082 482.621 313.281 472.042 321.68 463.969C330.143 455.896 341.439 451.859 355.566 451.859C368.783 451.859 379.232 455.342 386.914 462.309C394.596 469.21 398.438 478.422 398.438 489.945C398.438 503.943 389.518 520.609 371.68 539.945L333.594 581.254H404.98V596Z" fill="black"/>
</svg>
